<svg xmlns="http://www.w3.org/2000/svg" viewBox="0 0 640 420">
  <rect width="640" height="420" fill="#111416"/>
  <g fill="none">
    <path d="M86 96h468v226H86z" stroke="#e8e5de" stroke-width="4"/>
    <g stroke="#70787d" stroke-width="2"><path d="M164 96v226M242 96v226M320 96v226M398 96v226M476 96v226"/><path d="M86 292h468" stroke-dasharray="10 8"/></g>
    <g stroke="#c64b40" stroke-width="3"><path d="M86 96l78 196 78-196 78 196 78-196 78 196 78-196"/><path d="M110 116v150m0 0-8-16m8 16 8-16M530 116v150m0 0-8-16m8 16 8-16"/></g>
    <g fill="#c64b40"><circle cx="86" cy="322" r="5"/><circle cx="242" cy="322" r="5"/><circle cx="398" cy="322" r="5"/><circle cx="554" cy="322" r="5"/></g>
  </g>
  <g fill="#aab0b4" font-family="Arial" font-size="14"><text x="28" y="32" fill="#e8e5de" font-weight="700">ПЛАН КРОВЛИ · ВОДООТВЕДЕНИЕ</text><text x="536" y="400">МК-13</text><text x="98" y="286">УКЛОН</text><text x="488" y="286">УКЛОН</text></g>
</svg>
