<svg xmlns="http://www.w3.org/2000/svg" viewBox="0 0 640 420">
  <rect width="640" height="420" fill="#111416"/>
  <g fill="none">
    <rect x="94" y="82" width="452" height="250" stroke="#e8e5de" stroke-width="5"/>
    <g stroke="#c64b40" stroke-width="3"><path d="M116 82v250M140 82v250M164 82v250M188 82v250M212 82v250M236 82v250M260 82v250M284 82v250M308 82v250M332 82v250M356 82v250M380 82v250M404 82v250M428 82v250M452 82v250M476 82v250M500 82v250M524 82v250"/></g>
    <g stroke="#7b8388" stroke-width="1.5"><path d="M94 62V44M546 62V44M94 52h452M74 82H52M74 332H52M62 82v250"/></g>
    <g fill="#e8e5de"><circle cx="94" cy="82" r="7"/><circle cx="546" cy="82" r="7"/><circle cx="94" cy="332" r="7"/><circle cx="546" cy="332" r="7"/></g>
  </g>
  <g fill="#aab0b4" font-family="Arial" font-size="14"><text x="294" y="40">6 000</text><text x="34" y="224" transform="rotate(-90 34 224)">4 000</text><text x="28" y="32" fill="#e8e5de" font-weight="700">ПЛАН ЛАМЕЛЬНОЙ КРОВЛИ</text><text x="536" y="400">МК-22</text></g>
</svg>
