<svg xmlns="http://www.w3.org/2000/svg" viewBox="0 0 640 420">
  <rect width="640" height="420" fill="#111416"/>
  <g fill="none" stroke-linejoin="round">
    <path d="M106 320V92h82v228M188 110h344v76H188" stroke="#e8e5de" stroke-width="5"/>
    <path d="M188 110h344M220 84v126M260 84v126M300 84v126M340 84v126M380 84v126M420 84v126M460 84v126M500 84v126" stroke="#c64b40" stroke-width="3"/>
    <rect x="172" y="98" width="32" height="100" stroke="#c64b40" stroke-width="3"/>
    <g fill="#111416" stroke="#e8e5de" stroke-width="2"><circle cx="188" cy="126" r="6"/><circle cx="188" cy="168" r="6"/></g>
    <g stroke="#7c8489" stroke-width="1.5"><path d="M300 84l70-44h142M204 198l86 82h222M106 338h82"/></g>
  </g>
  <g fill="#aab0b4" font-family="Arial" font-size="14"><text x="380" y="38">ЛАМЕЛЬ 60 × 120</text><text x="306" y="286">СКРЫТЫЙ КРЕПЁЖ</text><text x="28" y="32" fill="#e8e5de" font-weight="700">УЗЕЛ РИГЕЛЬ · ЛАМЕЛИ</text><text x="536" y="400">МК-24</text></g>
</svg>
