<?xml version="1.0" encoding="UTF-8" standalone="no"?>
<svg
   xmlns:dc="http://purl.org/dc/elements/1.1/"
   xmlns:cc="http://creativecommons.org/ns#"
   xmlns:rdf="http://www.w3.org/1999/02/22-rdf-syntax-ns#"
   xmlns:svg="http://www.w3.org/2000/svg"
   xmlns="http://www.w3.org/2000/svg"
   viewBox="0 0 650.70667 715.30664"
   height="715.30664"
   width="650.70667"
   xml:space="preserve"
   id="svg2"
   version="1.1"><metadata
     id="metadata8"><rdf:RDF><cc:Work
         rdf:about=""><dc:format>image/svg+xml</dc:format><dc:type
           rdf:resource="http://purl.org/dc/dcmitype/StillImage" /></cc:Work></rdf:RDF></metadata><defs
     id="defs6" /><g
     transform="matrix(1.3333333,0,0,-1.3333333,0,715.30667)"
     id="g10"><g
       transform="scale(0.1)"
       id="g12"><path
         id="path14"
         style="fill:#231f20;fill-opacity:1;fill-rule:nonzero;stroke:none"
         d="m 3229.43,2462.76 -53.9,85.35 -202.8,321.08 -50.16,79.36 c 9.08,1.88 17.97,3.93 26.86,5.99 203.36,48.67 332.41,173.88 400.07,321.09 12.73,27.79 23.4,56.34 31.82,85.35 17.87,61.11 26.48,124 26.48,185.29 0,45.68 -4.68,91.15 -13.94,135.7 -6.08,29.01 -14.04,57.56 -24.14,85.45 -80.77,222.82 -292.92,401 -663.43,401 H 1408.47 v -401 -85.45 -320.99 -85.35 -321.09 -85.35 -321.08 -85.35 -325.3 h 386.31 1196.2 443.96 l -205.51,325.3" /><path
         id="path16"
         style="fill:#231f20;fill-opacity:1;fill-rule:nonzero;stroke:none"
         d="m 3779.13,904.121 h 1101.2 l 0.01,2885.489 c 0,216.92 -44.18,424.59 -124.1,613.16 -119.97,283 -319.87,523.14 -571.61,692.9 -251.65,169.86 -556.45,269.24 -882.59,269.15 H 0.00390625 L 0,904.121 H 2424.87 L 3134.42,0 3459.44,254.078 2625.79,1316.08 H 412.801 l 0.004,3636.78 H 3302.04 c 161.52,-0.09 314.25,-32.57 453.6,-91.34 208.88,-88.15 387.25,-235.93 512.94,-421.69 125.68,-185.95 198.86,-408.59 198.96,-650.22 l -0.01,-2473.44 -688.4,-0.09 V 904.121" /></g></g></svg>