<?xml version="1.0" encoding="UTF-8" standalone="no"?>
<svg
   xmlns:dc="http://purl.org/dc/elements/1.1/"
   xmlns:cc="http://creativecommons.org/ns#"
   xmlns:rdf="http://www.w3.org/1999/02/22-rdf-syntax-ns#"
   xmlns:svg="http://www.w3.org/2000/svg"
   xmlns="http://www.w3.org/2000/svg"
   viewBox="0 0 949.70667 146.57333"
   height="146.57333"
   width="949.70667"
   xml:space="preserve"
   id="svg2"
   version="1.1"><metadata
     id="metadata8"><rdf:RDF><cc:Work
         rdf:about=""><dc:format>image/svg+xml</dc:format><dc:type
           rdf:resource="http://purl.org/dc/dcmitype/StillImage" /></cc:Work></rdf:RDF></metadata><defs
     id="defs6"><style>path{fill:inherit!important}</style></defs><g
     transform="matrix(1.3333333,0,0,-1.3333333,0,146.57333)"
     id="g10"><g
       transform="scale(0.1)"
       id="g12"><path
         id="path14"
         style="fill:#231f20;fill-opacity:1;fill-rule:nonzero;stroke:none"
         d="m 1975.31,487.215 c -126.49,0 -346.85,0 -346.85,0 V 178.914 h -183.05 v 896.016 h 614.99 c 231.23,0 332.39,-155.774 332.39,-293.867 0,-110.797 -72.25,-221.575 -221.59,-269.758 0,0 -69.41,-24.09 -195.89,-24.09 z M 1628.46,920.77 V 641.375 h 388.58 c 134.88,0 184.66,64.23 184.66,139.688 0,73.863 -49.78,139.707 -184.66,139.707 h -388.58" /><path
         id="path16"
         style="fill:#231f20;fill-opacity:1;fill-rule:nonzero;stroke:none"
         d="m 6705.31,487.215 c -126.49,0 -346.85,0 -346.85,0 V 178.914 h -183.05 v 896.016 h 614.99 c 231.23,0 332.39,-155.774 332.39,-293.867 0,-110.797 -72.25,-221.575 -221.59,-269.758 0,0 -69.41,-24.09 -195.89,-24.09 z M 6358.46,920.77 V 641.375 h 388.58 c 134.88,0 184.66,64.23 184.66,139.688 0,73.863 -49.78,139.707 -184.66,139.707 h -388.58" /><path
         id="path18"
         style="fill:#231f20;fill-opacity:1;fill-rule:nonzero;stroke:none"
         d="m 2560.2,178.914 v 896.016 h 907.24 V 922.359 H 2744.86 V 716.832 h 597.31 V 562.691 H 2744.86 V 333.074 h 722.58 V 178.914 H 2560.2" /><path
         id="path20"
         style="fill:#231f20;fill-opacity:1;fill-rule:nonzero;stroke:none"
         d="m 4300.38,716.836 446.4,-537.918 H 4528.39 L 4171.92,604.445 3919.81,395.691 V 178.918 h -183.03 v 895.992 h 183.03 V 598.016 l 579.69,476.894 h 228 L 4300.38,716.836" /><path
         id="path22"
         style="fill:#231f20;fill-opacity:1;fill-rule:nonzero;stroke:none"
         d="m 5377.19,162.863 c -386.98,0 -583.45,186.254 -583.45,464.055 0,276.187 196.47,464.052 583.45,464.052 386.99,0 586.66,-186.271 586.66,-464.052 0,-277.801 -188.43,-464.055 -586.66,-464.055 m 0,772.356 c -260.12,0 -389.15,-114 -389.15,-308.301 0,-195.91 130.62,-309.914 389.15,-309.914 260.14,0 392.36,114.004 392.36,309.914 0,194.301 -133.83,308.301 -392.36,308.301" /><path
         id="path24"
         style="fill:#231f20;fill-opacity:1;fill-rule:nonzero;stroke:none"
         d="m 661.73,504.641 -11.05,17.5 -41.551,65.781 -10.274,16.266 c 1.852,0.378 3.684,0.796 5.497,1.214 41.671,9.977 68.109,35.641 81.968,65.801 2.625,5.695 4.797,11.551 6.532,17.481 3.66,12.523 5.433,25.406 5.433,37.968 0,9.36 -0.976,18.696 -2.867,27.832 -1.234,5.934 -2.887,11.789 -4.957,17.485 -16.543,45.652 -60.008,82.183 -135.926,82.183 H 288.586 v -82.183 -17.485 -65.8 -17.481 -65.801 -17.48 -65.781 -17.5 -66.661 h 79.156 245.129 90.969 l -42.11,66.661" /><path
         id="path26"
         style="fill:#231f20;fill-opacity:1;fill-rule:nonzero;stroke:none"
         d="m 774.367,185.258 h 225.653 v 591.258 c 0,44.457 -9.055,87.023 -25.442,125.668 -24.586,57.976 -65.519,107.176 -117.125,141.976 -51.566,34.78 -114.004,55.17 -180.84,55.15 H 0 V 185.258 H 496.867 L 642.266,0 708.844,52.0586 538.039,269.676 H 84.5742 l 0.0039,745.204 H 676.613 c 33.086,0 64.387,-6.68 92.938,-18.7 42.804,-18.078 79.359,-48.364 105.121,-86.43 25.746,-38.086 40.738,-83.719 40.758,-133.234 l -0.004,-506.84 H 774.367 v -84.418" /></g></g></svg>
